<?xml version="1.0" encoding="UTF-8"?>
<!-- Stellar EMS – SVG Favicon/Logo -->
<svg xmlns="http://www.w3.org/2000/svg" viewBox="0 0 64 64" role="img" aria-labelledby="title desc">
  <title id="title">Stellar EMS Logo</title>
  <desc id="desc">Stylized star with an S monogram in a gradient, designed for use as a favicon.</desc>
  <defs>
    <linearGradient id="g" x1="0%" y1="0%" x2="100%" y2="100%">
      <stop offset="0%" stop-color="#667eea"/>
      <stop offset="100%" stop-color="#764ba2"/>
    </linearGradient>
    <filter id="soft" x="-20%" y="-20%" width="140%" height="140%">
      <feGaussianBlur in="SourceGraphic" stdDeviation="0.5"/>
    </filter>
    <clipPath id="round">
      <rect x="6" y="6" width="52" height="52" rx="14" ry="14"/>
    </clipPath>
  </defs>

  <!-- Rounded tile background with subtle inner glow -->
  <rect x="6" y="6" width="52" height="52" rx="14" ry="14" fill="url(#g)"/>
  <rect x="6" y="6" width="52" height="52" rx="14" ry="14" fill="white" opacity="0.05"/>

  <g clip-path="url(#round)">
    <!-- Star burst accent -->
    <g opacity="0.22">
      <path d="M32 8l3.2 8.6 9 1.2-6.8 6 1.9 8.9L32 29.2l-7.3 3.5 1.9-8.9-6.8-6 9-1.2L32 8z" fill="#fff"/>
    </g>

    <!-- S monogram constructed from two opposing arcs -->
    <g transform="translate(16,16)">
      <!-- Upper arc -->
      <path d="M28 6c0 4.4-4.6 7.2-10.2 7.2H18c-3.3 0-6 1.5-6 3.8 0 1 .3 1.9.9 2.6" fill="none" stroke="#ffffff" stroke-width="4.4" stroke-linecap="round"/>
      <!-- Lower arc -->
      <path d="M4 26c0-4.4 4.6-7.2 10.2-7.2H20c3.3 0 6-1.5 6-3.8 0-1-.3-1.9-.9-2.6" fill="none" stroke="#ffffff" stroke-width="4.4" stroke-linecap="round"/>
    </g>
  </g>

  <!-- Subtle highlight ring -->
  <rect x="6.75" y="6.75" width="50.5" height="50.5" rx="13.25" ry="13.25" fill="none" stroke="#ffffff" stroke-opacity="0.35" stroke-width="1.5"/>
</svg>
